:SAMPLES-PER-SECOND 30
:FULLY-SPECIFIED
:DEGREES
890
root  -39.4789 37.1349 2.82185 -7.51944 -11.3042 2.64906
RightUpLeg  12.6147 -43.8371 -20.8493
RightLeg  39.6298 -13.86 -12.2746
RightFoot  -27.4967 1.48606 11.7571
RightToes  1.45519e-009 0 -3.6325e-017
Spine  14.8903 10.1951 26.9249
Spine1  -2.9482 16.9721 -23.0549
HEad  -16.2644 -25.539 4.1375
LeftShoulder1  -0.147662 3.89713 -31.4462
LeftArm  -3.11034 -6.07788 -42.8608
LeftForeArm  37.4536 -2.0618 -9.7047
LeftHand  -0.105274 11.6086 -0.747991
RightShoulder  0.383737 -2.20897 24.0367
RightArm  7.72683 55.4135 51.7876
RightForeArm  -16.8641 -6.37338 6.79017
RightHand  -0.381012 9.32458 -3.39736
LeftUpLeg  -22.9347 -25.0702 -5.32925
LeftLeg  43.3181 -28.9208 -25.7835
LeftFoot  -9.17747 0.0969424 -2.23938
LeftToes  -2.53752e-010 -2.07034e-011 -2.70101e-011
891
root  -39.4159 37.1426 2.88575 -7.46249 -10.2157 2.72897
RightUpLeg  13.0049 -44.2002 -21.2352
RightLeg  39.5628 -14.2916 -12.6009
RightFoot  -27.2953 1.46368 11.735
RightToes  1.45519e-009 0 -3.6325e-017
Spine  14.4363 10.7028 27.3743
Spine1  -3.04328 17.3484 -22.7948
HEad  -15.954 -27.3964 3.32665
LeftShoulder1  -0.0962004 3.75592 -32.0118
LeftArm  -3.24359 -3.27941 -39.412
LeftForeArm  37.0729 -3.14182 -9.75129
LeftHand  -0.0861877 10.9652 -0.542917
RightShoulder  0.456689 -1.86958 22.01
RightArm  5.41548 58.5116 47.7494
RightForeArm  -19.5162 -4.02718 6.63282
RightHand  -0.529436 9.65765 -4.47771
LeftUpLeg  -22.8157 -24.6229 -5.6425
LeftLeg  43.5422 -30.2532 -26.9099
LeftFoot  -9.39412 0.118563 -3.64005
LeftToes  -2.53752e-010 -2.07034e-011 -2.70101e-011
892
root  -39.33 37.3496 2.94551 -7.23953 -9.42543 2.79766
RightUpLeg  13.9955 -44.8921 -21.7954
RightLeg  37.8012 -14.5284 -12.0547
RightFoot  -26.397 1.32441 11.3515
RightToes  1.45519e-009 0 -3.6325e-017
Spine  14.3262 10.7685 29.0616
Spine1  -3.6162 17.6723 -24.6587
HEad  -14.8094 -29.5807 2.34499
LeftShoulder1  -0.0935706 3.75361 -31.3328
LeftArm  -4.00503 -0.192688 -37.2533
LeftForeArm  35.5007 -3.7032 -9.26838
LeftHand  -0.0388226 10.9928 0.530844
RightShoulder  0.436085 -1.85061 20.2629
RightArm  1.53575 61.5124 43.1479
RightForeArm  -21.9536 0.549744 6.15621
RightHand  -0.615577 10.639 -4.85223
LeftUpLeg  -22.0344 -24.0515 -5.91657
LeftLeg  41.9831 -31.9333 -26.7854
LeftFoot  -8.97571 0.161101 -5.16924
LeftToes  -2.53752e-010 -2.07034e-011 -2.70101e-011
893
root  -39.1965 37.6806 3.00141 -6.75125 -8.90387 3.20953
RightUpLeg  14.7212 -45.402 -22.2366
RightLeg  35.046 -14.8257 -11.1695
RightFoot  -25.0839 1.1736 11.1244
RightToes  1.45519e-009 0 -3.6325e-017
Spine  14.559 11.1497 30.1977
Spine1  -5.23711 17.9844 -26.3531
HEad  -12.6849 -31.5157 0.633997
LeftShoulder1  -0.0965449 3.76717 -30.5418
LeftArm  -4.5308 3.33048 -35.4898
LeftForeArm  33.3624 -4.1738 -8.83488
LeftHand  0.038633 10.2639 2.17187
RightShoulder  0.350407 -2.10153 18.901
RightArm  -4.16499 63.7904 36.1814
RightForeArm  -24.3234 7.42078 5.58002
RightHand  -0.831793 11.7566 -6.02565
LeftUpLeg  -20.8875 -23.5352 -6.42159
LeftLeg  38.6521 -33.9426 -25.372
LeftFoot  -8.22959 0.250384 -7.38622
LeftToes  -2.53752e-010 -2.07034e-011 -2.70101e-011
894
root  -39.0686 38.0702 3.0388 -5.81378 -9.07352 3.6152
RightUpLeg  14.5654 -45.4797 -21.668
RightLeg  31.6714 -15.194 -10.1347
RightFoot  -23.5012 0.990748 10.7718
RightToes  1.45519e-009 0 -3.6325e-017
Spine  14.5055 11.7806 31.5355
Spine1  -6.63956 18.4943 -28.2464
HEad  -11.4364 -32.7111 -0.328456
LeftShoulder1  -0.121562 3.84056 -29.9977
LeftArm  -4.99507 6.90558 -33.7139
LeftForeArm  31.8049 -5.34298 -8.39139
LeftHand  -0.0211277 12.0769 0.715561
RightShoulder  0.34121 -2.02176 16.6401
RightArm  -13.403 64.9586 28.2216
RightForeArm  -25.2237 16.4778 5.05943
RightHand  -1.06014 13.0709 -7.07851
LeftUpLeg  -19.9299 -22.9572 -6.55217
LeftLeg  34.0996 -35.6974 -22.8153
LeftFoot  -7.14448 0.396552 -9.62113
LeftToes  -2.53752e-010 -2.07034e-011 -2.70101e-011
895
root  -38.9382 38.4453 3.07721 -5.11627 -8.8592 4.36714
RightUpLeg  15.0053 -45.9432 -22.0043
RightLeg  28.2737 -15.4568 -9.08119
RightFoot  -22.023 0.83093 10.4711
RightToes  1.45519e-009 0 -3.6325e-017
Spine  14.7459 11.9519 32.5047
Spine1  -8.03104 18.5979 -30.3583
HEad  -12.2454 -32.843 0.675272
LeftShoulder1  -0.107361 3.81206 -28.6637
LeftArm  -5.71156 11.0527 -32.9737
LeftForeArm  30.6504 -6.96971 -7.70805
LeftHand  -0.0772946 11.527 -0.250625
RightShoulder  0.279914 -2.16055 14.2174
RightArm  -29.1661 65.1654 19.8048
RightForeArm  -19.1381 27.6545 6.86494
RightHand  -1.11464 13.8929 -7.11975
LeftUpLeg  -18.4681 -22.6773 -7.24535
LeftLeg  28.7842 -37.4587 -19.6774
LeftFoot  -5.58212 0.611101 -11.4654
LeftToes  -2.53752e-010 -2.07034e-011 -2.70101e-011
896
root  -38.8591 38.7502 3.08931 -4.74191 -8.01139 5.28383
RightUpLeg  15.4978 -45.548 -22.2882
RightLeg  25.511 -16.848 -8.47198
RightFoot  -20.7429 0.727754 10.5386
RightToes  1.45519e-009 0 -3.6325e-017
Spine  14.443 11.6479 32.1688
Spine1  -8.22126 18.1727 -31.0392
HEad  -16.6582 -31.3959 4.27716
LeftShoulder1  0.00849704 3.47803 -27.6896
LeftArm  -5.92099 15.3315 -32.2845
LeftForeArm  27.6496 -9.00459 -7.10006
LeftHand  -0.0957124 11.5682 -0.586925
RightShoulder  0.181026 -2.52056 11.5267
RightArm  -44.4296 65.3667 12.7175
RightForeArm  -10.708 40.6688 10.2904
RightHand  -1.14376 14.3804 -7.12628
LeftUpLeg  -16.6094 -21.8313 -8.30933
LeftLeg  23.4969 -39.941 -16.8024
LeftFoot  -3.95089 0.871722 -13.0749
LeftToes  -2.53752e-010 -2.07034e-011 -2.70101e-011
897
root  -38.8102 38.947 3.03169 -4.53918 -7.34064 6.01157
RightUpLeg  14.5099 -42.643 -21.0605
RightLeg  24.5505 -20.6422 -8.69795
RightFoot  -19.6772 0.624728 10.3811
RightToes  1.45519e-009 0 -3.6325e-017
Spine  14.4441 11.1229 31.624
Spine1  -8.12504 17.675 -31.4666
HEad  -20.3921 -30.8388 6.8355
LeftShoulder1  0.226376 2.80933 -26.5049
LeftArm  -6.88175 19.2379 -32.5125
LeftForeArm  25.0588 -10.0243 -6.29594
LeftHand  -0.11417 11.2868 -0.98408
RightShoulder  0.0732831 -3.04073 9.1761
RightArm  -58.7016 65.567 5.20874
RightForeArm  -1.65865 54.3293 16.0455
RightHand  -1.1584 14.1033 -7.32231
LeftUpLeg  -14.9196 -19.5445 -9.32888
LeftLeg  19.0795 -43.0944 -14.334
LeftFoot  -2.68672 1.17534 -15.2553
LeftToes  -2.53752e-010 -2.07034e-011 -2.70101e-011
898
root  -38.7553 39.0269 2.97807 -4.03073 -6.30316 6.40966
RightUpLeg  14.0022 -42.859 -21.0118
RightLeg  24.33 -21.6102 -8.75173
RightFoot  -19.1737 0.558384 10.0402
RightToes  1.45519e-009 0 -3.6325e-017
Spine  13.7823 10.2415 31.8856
Spine1  -7.51533 16.9753 -32.7673
HEad  -21.3069 -31.6645 7.29861
LeftShoulder1  0.344337 2.40462 -25.023
LeftArm  -8.33194 21.6361 -33.3523
LeftForeArm  23.9486 -9.47581 -5.65982
LeftHand  -0.11208 11.2398 -0.972918
RightShoulder  -0.00289722 -3.50954 7.73314
RightArm  -73.3198 65.5041 -3.87113
RightForeArm  12.7354 67.2812 27.5398
RightHand  -1.2084 12.828 -8.07637
LeftUpLeg  -14.1182 -16.5807 -10.4228
LeftLeg  16.7505 -47.3653 -12.8291
LeftFoot  -2.10337 1.43164 -17.4557
LeftToes  -2.53752e-010 -2.07034e-011 -2.70101e-011
899
root  -38.7155 39.0325 2.94278 -3.52884 -5.74846 6.77848
RightUpLeg  13.7366 -44.8954 -21.8609
RightLeg  24.5192 -20.1242 -8.66643
RightFoot  -19.2548 0.553996 9.88018
RightToes  1.45519e-009 0 -3.6325e-017
Spine  13.4649 10.1288 31.1764
Spine1  -7.45965 16.6295 -32.0879
HEad  -21.8893 -32.3741 7.62847
LeftShoulder1  0.330779 2.44882 -25.11
LeftArm  -9.20966 21.8007 -33.6523
LeftForeArm  25.0437 -7.23414 -5.24611
LeftHand  -0.151711 10.8267 -1.87922
RightShoulder  -0.076122 -4.02998 6.15268
RightArm  -86.5023 64.3242 -12.674
RightForeArm  42.7464 76.936 53.8551
RightHand  -0.949811 12.6158 -6.53838
LeftUpLeg  -13.9808 -14.8513 -11.1911
LeftLeg  15.4809 -49.9113 -11.9468
LeftFoot  -1.5769 1.5806 -18.268
LeftToes  -2.53752e-010 -2.07034e-011 -2.70101e-011
900
root  -38.676 38.9904 2.86431 -3.517 -5.70833 6.78224
RightUpLeg  13.6738 -46.5673 -22.4795
RightLeg  25.0655 -18.3736 -8.83131
RightFoot  -19.4999 0.563213 9.73543
RightToes  1.45519e-009 0 -3.6325e-017
Spine  14.0036 9.96451 31.4894
Spine1  -7.62546 16.6133 -32.1988
HEad  -22.4434 -32.8526 8.4796
LeftShoulder1  0.337564 2.44161 -25.5639
LeftArm  -9.65606 20.904 -33.8979
LeftForeArm  27.6136 -5.34159 -4.87612
LeftHand  -0.178146 11.1362 -2.2688
RightShoulder  -0.163889 -4.64647 6.43832
RightArm  -97.6128 63.0763 -21.5676
RightForeArm  88.2712 79.4518 97.5567
RightHand  -0.939593 13.4264 -6.20818
LeftUpLeg  -14.3162 -15.1051 -11.172
LeftLeg  15.8861 -49.4291 -12.2814
LeftFoot  -1.28795 1.60198 -17.9983
LeftToes  -2.53752e-010 -2.07034e-011 -2.70101e-011
901
root  -38.6444 38.923 2.76872 -3.63525 -5.94821 6.5467
RightUpLeg  13.2686 -47.1529 -22.367
RightLeg  25.8878 -17.4698 -9.16467
RightFoot  -19.822 0.575853 9.56377
RightToes  1.45519e-009 0 -3.6325e-017
Spine  14.4994 9.64982 32.1306
Spine1  -7.61105 16.528 -32.283
HEad  -22.4564 -32.0018 9.06183
LeftShoulder1  0.30325 2.5646 -26.0818
LeftArm  -9.7183 20.188 -34.215
LeftForeArm  30.1386 -4.85191 -4.8808
LeftHand  -0.192593 11.0205 -2.61249
RightShoulder  -0.230906 -5.09297 6.61929
RightArm  -103.9 62.4787 -26.065
RightForeArm  111.686 77.9362 120.476
RightHand  -1.0015 13.6874 -6.50737
LeftUpLeg  -15.0507 -16.8612 -10.6262
LeftLeg  16.9623 -46.977 -12.9289
LeftFoot  -1.30318 1.54339 -17.3731
LeftToes  -2.53752e-010 -2.07034e-011 -2.70101e-011
902
root  -38.5828 38.8418 2.69502 -3.97473 -6.84967 6.40784
RightUpLeg  12.611 -46.5527 -22.1681
RightLeg  26.9775 -16.9815 -9.40799
RightFoot  -20.2339 0.604979 9.52931
RightToes  1.45519e-009 0 -3.6325e-017
Spine  14.8024 9.59863 32.7778
Spine1  -7.22275 16.7651 -32.3591
HEad  -21.0909 -31.4622 8.84533
LeftShoulder1  0.286894 2.63279 -26.7431
LeftArm  -9.33838 19.6131 -34.6331
LeftForeArm  31.2015 -5.32924 -5.23339
LeftHand  -0.183092 11.4339 -2.2125
RightShoulder  -0.315492 -5.57278 7.61044
RightArm  -104.837 62.7855 -27.3148
RightForeArm  108.113 78.1113 117.865
RightHand  -1.03204 13.7829 -6.66389
LeftUpLeg  -15.706 -18.7776 -10.0166
LeftLeg  18.0481 -44.2357 -13.5554
LeftFoot  -1.19338 1.4512 -16.1744
LeftToes  -2.53752e-010 -2.07034e-011 -2.70101e-011
